:version 1.10
:name ASF
:units
  mass 1
  length 1
  angle deg
:documentation
  ASF file generated by Kaydara
:root
  axis xyz
  order  tx ty tz rx ry rz
  position 0 0 0
  orientation 0 0 0
:bonedata
  begin
    id 1
    name RightUpLegDummy
    direction -0.718183 -0.695806 0.00816078
    length 4.904
    axis 0 0 0 xyz
  end
  begin
    id 2
    name RightUpLeg
    direction -0.0736652 -0.994202 0.0783343
    length 17.4976
    axis -2.72909 -3.00389 -4.00133 xyz
    dof rx ry rz
  end
  begin
    id 3
    name RightLeg
    direction -0.0389037 -0.994596 -0.0962598
    length 16.5821
    axis 3.95836 -18.5909 -4.46993 xyz
    dof rx ry rz
  end
  begin
    id 4
    name RightFoot
    direction -0.311643 -0.412678 0.855906
    length 3.77069
    axis -1.99483 -18.8351 -3.27644 xyz
    dof rx ry rz
  end
  begin
    id 5
    name RightToes
    direction -0.317852 0.0389852 0.947339
    length 3.85082
    axis -2.00228 -18.1713 -3.25211 xyz
    dof rx ry rz
  end
  begin
    id 6
    name SpineDummy
    direction 8.3039e-015 1 4.44677e-016
    length 4.6813
    axis 0 0 0 xyz
  end
  begin
    id 7
    name Spine
    direction -0.000262373 0.999988 0.00493267
    length 10.1015
    axis -0.00246081 0.00062579 0.0150362 xyz
    dof rx ry rz
  end
  begin
    id 8
    name Spine1
    direction 0 0 0
    length 0
    axis -0.00349562 0.000650293 0.0196666 xyz
    dof rx ry rz
  end
  begin
    id 9
    name HEadDummy
    direction -0.000343232 0.999999 0.00123745
    length 3.43865
    axis -0.00349562 0.000650293 0.0196666 xyz
  end
  begin
    id 10
    name HEad
    direction -0.0461221 0.980933 0.188796
    length 5.12695
    axis -0.00351404 -7.04812 0.0199272 xyz
    dof rx ry rz
  end
  begin
    id 11
    name LeftShoulder1Dummy
    direction 0.998904 -0.0399089 -0.0244534
    length 3.5433
    axis -0.00349562 0.000650293 0.0196666 xyz
  end
  begin
    id 12
    name LeftShoulder1
    direction 0.99951 1.64443e-005 0.0312999
    length 4.05031
    axis -0.00349562 0.000650293 0.0196666 xyz
    dof rx ry rz
  end
  begin
    id 13
    name LeftArm
    direction 0.984791 0.0515299 0.165927
    length 12.9126
    axis -64.823 -10.7743 5.20463 xyz
    dof rx ry rz
  end
  begin
    id 14
    name LeftForeArm
    direction 0.984968 0.0534808 0.16425
    length 10.8596
    axis -30.0462 -7.70601 1.87451 xyz
    dof rx ry rz
  end
  begin
    id 15
    name LeftHand
    direction 0.975871 0.0289682 0.216418
    length 6.62295
    axis -20.1348 -6.98077 1.86072 xyz
    dof rx ry rz
  end
  begin
    id 16
    name RightShoulderDummy
    direction -0.998877 -0.0405946 -0.0244307
    length 3.5433
    axis -0.00349562 0.000650293 0.0196666 xyz
  end
  begin
    id 17
    name RightShoulder
    direction -0.998933 -0.0249743 -0.0388558
    length 4.05031
    axis -0.0205316 -4.02113 1.41395 xyz
    dof rx ry rz
  end
  begin
    id 18
    name RightArm
    direction -0.997559 0.068664 0.0127103
    length 12.9638
    axis -67.3882 1.84188 -6.15987 xyz
    dof rx ry rz
  end
  begin
    id 19
    name RightForeArm
    direction -0.991508 0.0912848 0.0926241
    length 10.8312
    axis -22.1975 3.41087 -4.28711 xyz
    dof rx ry rz
  end
  begin
    id 20
    name RightHand
    direction -0.989262 0.0600788 0.133232
    length 6.57864
    axis -12.2911 2.17515 -4.39675 xyz
    dof rx ry rz
  end
  begin
    id 21
    name LeftUpLegDummy
    direction 0.718183 -0.695806 0.00816078
    length 4.904
    axis 0 0 0 xyz
  end
  begin
    id 22
    name LeftUpLeg
    direction 0.0831398 -0.99469 0.0606531
    length 17.4976
    axis -1.71016 2.29552 4.63832 xyz
    dof rx ry rz
  end
  begin
    id 23
    name LeftLeg
    direction 0.0498442 -0.991778 -0.117862
    length 16.5821
    axis 5.13757 15.5727 5.13348 xyz
    dof rx ry rz
  end
  begin
    id 24
    name LeftFoot
    direction 0.269026 -0.433896 0.85986
    length 3.77069
    axis -0.576502 15.6961 4.10267 xyz
    dof rx ry rz
  end
  begin
    id 25
    name LeftToes
    direction 0.277311 0.0251143 0.960452
    length 3.85048
    axis -0.576502 15.6961 4.10267 xyz
    dof rx ry rz
  end
:hierarchy
  begin
    root RightUpLegDummy SpineDummy LeftUpLegDummy
    RightUpLegDummy RightUpLeg
    RightUpLeg RightLeg
    RightLeg RightFoot
    RightFoot RightToes
    SpineDummy Spine
    Spine Spine1
    Spine1 HEadDummy LeftShoulder1Dummy RightShoulderDummy
    HEadDummy HEad
    LeftShoulder1Dummy LeftShoulder1
    LeftShoulder1 LeftArm
    LeftArm LeftForeArm
    LeftForeArm LeftHand
    RightShoulderDummy RightShoulder
    RightShoulder RightArm
    RightArm RightForeArm
    RightForeArm RightHand
    LeftUpLegDummy LeftUpLeg
    LeftUpLeg LeftLeg
    LeftLeg LeftFoot
    LeftFoot LeftToes
  end

:SAMPLES-PER-SECOND 30
:FULLY-SPECIFIED
:DEGREES
138
root  -27.4255 38.8533 46.3165 -176.821 -33.537 175.416
RightUpLeg  -8.10387 1.99525 11.0466
RightLeg  19.9997 1.61126 -4.44206
RightFoot  -16.159 -0.267097 -12.3717
RightToes  -5.82073e-011 -3.18055e-015 -2.98177e-016
Spine  2.98853 -1.36046 1.60939
Spine1  9.20881 0.499309 -3.20673
HEad  15.6168 -18.6541 6.13909
LeftShoulder1  -3.88251e-019 9.70628e-020 -3.87848e-018
LeftArm  -30.3724 64.1742 -67.4996
LeftForeArm  -28.2262 -21.8375 1.07225
LeftHand  -0.257796 -0.437441 5.59977
RightShoulder  6.73748 9.73446 33.1934
RightArm  23.707 -41.24 17.3006
RightForeArm  -9.161 27.8327 -14.5291
RightHand  -0.683688 -1.14717 -18.0907
LeftUpLeg  -22.7174 8.55105 -1.75405
LeftLeg  60.042 0.933724 29.3304
LeftFoot  8.18113 0.244052 -1.14973
LeftToes  1.2018e-011 -3.94675e-011 -1.33631e-011
139
root  -28.0997 38.9734 45.909 -177.25 -26.4028 175.557
RightUpLeg  -6.15305 3.66531 10.6312
RightLeg  19.2289 6.86071 -3.68744
RightFoot  -16.2697 -0.264986 -11.8527
RightToes  -5.82073e-011 -3.18055e-015 -2.98177e-016
Spine  3.6617 -0.803438 3.51132
Spine1  7.56252 1.64327 -5.8231
HEad  14.9455 -16.4095 4.90182
LeftShoulder1  -3.88251e-019 9.70628e-020 -3.87848e-018
LeftArm  -35.4424 66.6706 -70.356
LeftForeArm  -24.7744 -18.453 0.166517
LeftHand  -0.162877 1.33747 5.03398
RightShoulder  6.73117 9.75087 33.1225
RightArm  27.0492 -40.92 17.1863
RightForeArm  -10.8958 30.1646 -15.7492
RightHand  -0.69918 -0.743717 -16.9542
LeftUpLeg  -23.2361 6.43571 -1.34669
LeftLeg  55.7315 3.48224 28.4364
LeftFoot  3.96716 -0.0718358 0.539154
LeftToes  1.2018e-011 -3.94675e-011 -1.33631e-011
140
root  -28.7679 39.0707 45.4548 -177.631 -19.4893 175.684
RightUpLeg  -4.48525 4.65063 10.066
RightLeg  18.7403 12.6899 -2.98975
RightFoot  -16.2139 -0.267135 -12.152
RightToes  -5.82073e-011 -3.18055e-015 -2.98177e-016
Spine  4.28815 -0.197976 5.50676
Spine1  6.16062 2.76779 -8.64649
HEad  13.5998 -13.8318 3.87149
LeftShoulder1  -3.88251e-019 9.70628e-020 -3.87848e-018
LeftArm  -39.886 68.4302 -73.6785
LeftForeArm  -21.8337 -15.9189 0.236396
LeftHand  -0.0926119 1.99186 3.37946
RightShoulder  6.83842 9.83299 33.5117
RightArm  28.9053 -40.6093 17.4121
RightForeArm  -12.4157 32.7356 -17.197
RightHand  -0.667741 -0.746006 -16.203
LeftUpLeg  -23.1876 4.25422 -0.701797
LeftLeg  49.6611 5.50883 25.1534
LeftFoot  0.00304876 -0.15374 1.32897
LeftToes  1.2018e-011 -3.94675e-011 -1.33631e-011
141
root  -29.4041 39.1414 44.9249 -177.942 -13.6779 175.588
RightUpLeg  -2.95557 4.82039 8.97467
RightLeg  18.5983 18.1211 -2.01482
RightFoot  -16.3406 -0.29843 -12.8106
RightToes  -5.82073e-011 -3.18055e-015 -2.98177e-016
Spine  4.59484 0.187459 6.83064
Spine1  5.41332 3.47702 -10.8425
HEad  11.6612 -11.3121 2.95498
LeftShoulder1  -3.88251e-019 9.70628e-020 -3.87848e-018
LeftArm  -42.9866 69.5407 -76.7205
LeftForeArm  -20.4623 -14.3861 0.322275
LeftHand  -0.0652937 1.97677 2.26181
RightShoulder  6.9474 9.92001 33.895
RightArm  29.3946 -40.7149 18.2418
RightForeArm  -13.8056 35.2927 -18.7463
RightHand  -0.571295 -1.25677 -15.5025
LeftUpLeg  -22.8273 1.30018 -0.278437
LeftLeg  42.0236 6.82854 20.5982
LeftFoot  -1.89589 -0.18649 1.84871
LeftToes  1.2018e-011 -3.94675e-011 -1.33631e-011
142
root  -29.9723 39.1692 44.2979 -178.287 -9.3757 175.454
RightUpLeg  -1.42357 4.60024 7.73847
RightLeg  18.6665 22.3103 -1.03256
RightFoot  -17.0039 -0.379994 -13.0991
RightToes  -5.82073e-011 -3.18055e-015 -2.98177e-016
Spine  4.80394 0.308127 7.27226
Spine1  4.84801 3.63335 -11.9565
HEad  9.76409 -9.24239 1.92209
LeftShoulder1  -3.88251e-019 9.70628e-020 -3.87848e-018
LeftArm  -44.644 70.4195 -78.946
LeftForeArm  -19.8812 -13.9867 0.117388
LeftHand  -0.0642491 2.02807 2.24481
RightShoulder  7.0134 9.98391 34.0997
RightArm  29.5598 -41.5861 19.0665
RightForeArm  -15.8177 37.7609 -20.3204
RightHand  -0.448171 -2.00045 -14.7105
LeftUpLeg  -22.2472 -2.45834 0.0575696
LeftLeg  33.4489 6.89349 15.4768
LeftFoot  -3.29498 -0.147133 1.59951
LeftToes  1.2018e-011 -3.94675e-011 -1.33631e-011
143
root  -30.4614 39.139 43.6094 -178.651 -6.14703 175.47
RightUpLeg  -0.043502 5.31491 6.92393
RightLeg  18.9616 24.4752 -0.502238
RightFoot  -17.9975 -0.501695 -13.3505
RightToes  -5.82073e-011 -3.18055e-015 -2.98177e-016
Spine  5.21349 0.417851 6.9425
Spine1  4.0211 3.5028 -12.042
HEad  8.17495 -7.55148 0.836964
LeftShoulder1  -3.88251e-019 9.70628e-020 -3.87848e-018
LeftArm  -44.6898 71.1207 -79.9177
LeftForeArm  -18.563 -14.2961 -0.232389
LeftHand  -0.0777044 1.95295 2.72267
RightShoulder  7.09986 10.0608 34.3802
RightArm  30.2339 -42.9024 19.1156
RightForeArm  -18.2146 40.1719 -21.9621
RightHand  -0.42151 -2.11039 -14.2729
LeftUpLeg  -21.6947 -6.31746 0.588711
LeftLeg  25.1738 4.99545 10.4987
LeftFoot  -5.30278 -0.0107957 -0.117515
LeftToes  1.2018e-011 -3.94675e-011 -1.33631e-011
144
root  -30.8908 39.0373 42.9079 -179.106 -3.47751 175.349
RightUpLeg  1.0082 8.51869 6.36069
RightLeg  20.1009 23.7939 -0.210162
RightFoot  -19.1731 -0.64567 -13.5668
RightToes  -5.82073e-011 -3.18055e-015 -2.98177e-016
Spine  5.7663 0.683923 5.80603
Spine1  3.33284 3.43898 -11.5241
HEad  6.66588 -6.12779 0.103929
LeftShoulder1  -3.88251e-019 9.70628e-020 -3.87848e-018
LeftArm  -42.4724 71.3305 -78.9879
LeftForeArm  -16.1623 -15.0237 -0.701136
LeftHand  -0.106574 1.48587 3.38183
RightShoulder  7.27975 10.2016 34.9978
RightArm  31.3301 -44.0415 18.5767
RightForeArm  -20.3544 42.3558 -23.5811
RightHand  -0.536566 -1.26573 -14.5796
LeftUpLeg  -21.2636 -8.75125 0.682803
LeftLeg  18.5694 1.01889 6.47777
LeftFoot  -6.46345 0.184898 -3.41351
LeftToes  1.2018e-011 -3.94675e-011 -1.33631e-011
